# Blender v2.81 (sub 16) OBJ File: 'woodentable.blend'
# www.blender.org
mtllib woodentable.mtl
o wooden_table_Cube.001
v 4.450167 8.716063 -10.264390
v 4.450167 9.257007 -10.264390
v 10.881214 8.716063 -2.600165
v 10.881214 9.257007 -2.600165
v -10.881214 8.716063 2.600165
v -10.881214 9.257007 2.600165
v -4.450167 8.716063 10.264390
v -4.450167 9.257007 10.264390
vt -0.004421 -0.005633 0.0
vt 0.999370 -0.005633 0.0
vt 0.999370 0.998157 0.0
vt -0.004421 0.998157 0.0
vt -0.002044 -0.005816 0.0
vt 1.002044 -0.005816 0.0
vt 1.002044 0.998273 0.0
vt -0.002044 0.998273 0.0
vt 0.003244 0.001965 0.0
vt 0.991705 0.001965 0.0
vt 0.991705 0.990425 0.0
vt 0.003244 0.990425 0.0
vt -0.003208 0.005581 0.0
vt 0.993106 0.005581 0.0
vt 0.993106 1.001895 0.0
vt -0.003208 1.001895 0.0
vt 0.125000 0.500000 0.0
vt 0.375000 0.500000 0.0
vt 0.375000 0.750000 0.0
vt 0.125000 0.750000 0.0
vt 0.007184 0.008464 0.0
vt 0.987697 0.008464 0.0
vt 0.987697 0.988977 0.0
vt 0.007184 0.988977 0.0
vn 0.7660 0.0000 -0.6428
vn 0.6428 0.0000 0.7660
vn -0.7660 0.0000 0.6428
vn -0.6428 0.0000 -0.7660
vn 0.0000 -1.0000 0.0000
vn 0.0000 1.0000 0.0000
usemtl Material.001
s off
f 1/1/1 2/2/1 4/3/1 3/4/1
f 3/5/2 4/6/2 8/7/2 7/8/2
f 7/9/3 8/10/3 6/11/3 5/12/3
f 5/13/4 6/14/4 2/15/4 1/16/4
f 3/17/5 7/18/5 5/19/5 1/20/5
f 8/21/6 4/22/6 2/23/6 6/24/6
o wooden_table.001_Cube.002
v -10.881214 8.180882 2.600164
v -10.881214 8.721826 2.600164
v -4.450167 8.180882 10.264390
v -4.450167 8.721826 10.264390
v -3.713914 8.721826 9.646601
v -10.404390 8.180882 2.200062
v -3.973343 8.180882 9.864288
v -10.144961 8.721826 1.982375
v -10.444870 8.180882 3.120179
v -10.209043 8.721826 3.401228
v -9.472790 8.721826 2.783438
v -9.968046 8.180882 2.720077
v -4.852189 8.180882 9.785278
v -5.088017 8.721826 9.504230
v -4.351764 8.721826 8.886440
v -4.375366 8.180882 9.385176
v -4.852189 0.024786 9.785278
v -4.450167 0.024786 10.264390
v -10.404390 0.024786 2.200062
v -10.881214 0.024786 2.600164
v -3.973343 0.024786 9.864288
v -9.968046 0.024786 2.720077
v -10.444870 0.024786 3.120179
v -4.375366 0.024786 9.385176
v 4.450167 8.180882 -10.264390
v 4.450167 8.721826 -10.264390
v 10.881214 8.180882 -2.600164
v 10.881214 8.721826 -2.600164
v 3.215524 8.180882 3.832113
v 3.215524 8.721826 3.832113
v -3.215524 8.180882 -3.832113
v -3.215524 8.721826 -3.832113
v 10.144961 8.721826 -1.982375
v 3.973343 8.180882 -9.864288
v 10.404390 8.180882 -2.200062
v 3.713914 8.721826 -9.646601
v 4.886511 8.180882 -9.744375
v 5.122338 8.721826 -9.463326
v -2.543352 8.721826 -3.031049
v -2.543352 8.180882 -3.031049
v 4.386086 8.721826 -8.845537
v 4.409688 8.180882 -9.344273
v 10.479192 8.180882 -3.079277
v 10.243364 8.721826 -3.360325
v 2.577674 8.721826 3.071952
v 2.577674 8.180882 3.071952
v 9.507112 8.721826 -2.742536
v 10.002368 8.180882 -2.679174
v 10.479192 0.024786 -3.079277
v 10.881214 0.024786 -2.600164
v 3.973343 0.024786 -9.864288
v 4.450167 0.024786 -10.264390
v 10.404390 0.024786 -2.200062
v 4.409688 0.024786 -9.344273
v 4.886511 0.024786 -9.744375
v 10.002368 0.024786 -2.679174
vt 0.375000 0.487994 0.0
vt 0.625000 0.487994 0.0
vt 0.625000 0.500000 0.0
vt 0.375000 0.500000 0.0
vt 0.375000 0.723870 0.0
vt 0.625000 0.723870 0.0
vt 0.625000 0.750000 0.0
vt 0.375000 0.750000 0.0
vt 0.362994 0.723870 0.0
vt 0.375000 0.723870 0.0
vt 0.362994 0.723870 0.0
vt 0.637006 0.723870 0.0
vt 0.750000 0.723870 0.0
vt 0.750000 0.750000 0.0
vt 0.637006 0.750000 0.0
vt 0.375000 0.762006 0.0
vt 0.625000 0.762006 0.0
vt 0.625000 0.875000 0.0
vt 0.375000 0.875000 0.0
vt 0.250000 0.723870 0.0
vt 0.362994 0.750000 0.0
vt 0.250000 0.750000 0.0
vt 0.375000 0.375000 0.0
vt 0.625000 0.375000 0.0
vt 0.250000 0.524796 0.0
vt 0.362994 0.524796 0.0
vt 0.625000 0.524796 0.0
vt 0.637006 0.524796 0.0
vt 0.750000 0.524796 0.0
vt 0.375000 0.524796 0.0
vt 0.375000 0.762006 0.0
vt 0.375000 0.750000 0.0
vt 0.637006 0.500000 0.0
vt 0.750000 0.500000 0.0
vt 0.250000 0.500000 0.0
vt 0.362994 0.500000 0.0
vt 0.362994 0.750000 0.0
vt 0.362994 0.500000 0.0
vt 0.375000 0.500000 0.0
vt 0.375000 0.524796 0.0
vt 0.362994 0.524796 0.0
vt 0.375000 0.487994 0.0
vt 0.375000 0.487994 0.0
vt 0.375000 0.500000 0.0
vt 0.625000 0.500000 0.0
vt 0.625000 0.487994 0.0
vt 0.375000 0.723870 0.0
vt 0.375000 0.750000 0.0
vt 0.625000 0.750000 0.0
vt 0.625000 0.723870 0.0
vt 0.362994 0.723870 0.0
vt 0.362994 0.723870 0.0
vt 0.375000 0.723870 0.0
vt 0.637006 0.723870 0.0
vt 0.637006 0.750000 0.0
vt 0.375000 0.762006 0.0
vt 0.625000 0.762006 0.0
vt 0.362994 0.750000 0.0
vt 0.362994 0.524796 0.0
vt 0.625000 0.524796 0.0
vt 0.637006 0.524796 0.0
vt 0.375000 0.524796 0.0
vt 0.375000 0.750000 0.0
vt 0.375000 0.762006 0.0
vt 0.637006 0.500000 0.0
vt 0.362994 0.500000 0.0
vt 0.362994 0.750000 0.0
vt 0.362994 0.500000 0.0
vt 0.362994 0.524796 0.0
vt 0.375000 0.524796 0.0
vt 0.375000 0.500000 0.0
vt 0.375000 0.487994 0.0
vn 0.6428 0.0000 0.7660
vn -0.7660 0.0000 0.6428
vn 0.0000 1.0000 0.0000
vn -0.6428 0.0000 -0.7660
vn 0.0000 -1.0000 0.0000
vn 0.7660 0.0000 -0.6428
usemtl Material.002
s off
f 15/25/7 13/26/7 12/27/7 11/28/7
f 17/29/8 18/30/8 10/31/8 9/32/8
f 20/33/7 17/29/7 31/34/7 30/35/7
f 19/36/9 47/37/9 40/38/9 16/39/9
f 14/40/10 16/41/10 40/42/10 39/43/10
f 9/32/10 10/31/10 16/41/10 14/40/10
f 18/30/9 19/36/9 16/39/9 10/31/9
f 48/44/11 20/33/11 14/45/11 39/46/11
f 37/47/7 38/48/7 13/26/7 15/25/7
f 54/49/11 24/50/11 20/33/11 48/44/11
f 22/51/9 23/52/9 19/36/9 18/30/9
f 23/52/9 53/53/9 47/37/9 19/36/9
f 24/50/11 21/54/11 17/29/11 20/33/11
f 21/54/8 22/51/8 18/30/8 17/29/8
f 11/28/8 12/27/8 22/51/8 21/54/8
f 9/32/10 14/40/10 27/55/10 28/56/10
f 13/57/9 38/58/9 53/53/9 23/52/9
f 12/27/9 13/57/9 23/52/9 22/51/9
f 37/59/11 15/60/11 24/50/11 54/49/11
f 30/35/11 31/34/11 28/56/11 27/61/11
f 29/62/11 26/63/11 25/64/11 32/65/11
f 17/29/8 9/32/8 28/56/8 31/34/8
f 14/45/12 20/33/12 30/35/12 27/61/12
f 15/25/7 11/28/7 26/63/7 29/66/7
f 21/54/10 24/50/10 32/65/10 25/64/10
f 24/50/12 15/60/12 29/62/12 32/65/12
f 11/28/8 21/54/8 25/64/8 26/63/8
f 43/67/7 35/68/7 36/69/7 41/70/7
f 45/71/12 33/72/12 34/73/12 46/74/12
f 50/75/7 62/76/7 63/77/7 45/71/7
f 49/78/9 44/79/9 40/38/9 47/37/9
f 42/80/10 39/43/10 40/42/10 44/81/10
f 33/72/10 42/80/10 44/81/10 34/73/10
f 46/74/9 34/73/9 44/79/9 49/78/9
f 48/44/11 39/46/11 42/82/11 50/75/11
f 37/47/7 43/67/7 41/70/7 38/48/7
f 54/49/11 48/44/11 50/75/11 56/83/11
f 52/84/9 46/74/9 49/78/9 55/85/9
f 55/85/9 49/78/9 47/37/9 53/53/9
f 56/83/11 50/75/11 45/71/11 51/86/11
f 51/86/12 45/71/12 46/74/12 52/84/12
f 35/68/12 51/86/12 52/84/12 36/69/12
f 33/72/10 60/87/10 59/88/10 42/80/10
f 41/89/9 55/85/9 53/53/9 38/58/9
f 36/69/9 52/84/9 55/85/9 41/89/9
f 37/59/11 54/49/11 56/83/11 43/90/11
f 62/76/11 59/91/11 60/87/11 63/77/11
f 61/92/11 64/93/11 57/94/11 58/95/11
f 45/71/12 63/77/12 60/87/12 33/72/12
f 42/82/8 59/91/8 62/76/8 50/75/8
f 43/67/7 61/96/7 58/95/7 35/68/7
f 51/86/10 57/94/10 64/93/10 56/83/10
f 56/83/8 64/93/8 61/92/8 43/90/8
f 35/68/12 58/95/12 57/94/12 51/86/12
